<?xml version="1.0" encoding="utf-8"?>
<!-- Generator: Adobe Illustrator 27.3.1, SVG Export Plug-In . SVG Version: 6.00 Build 0)  -->
<svg version="1.1" id="Layer_1" xmlns="http://www.w3.org/2000/svg" xmlns:xlink="http://www.w3.org/1999/xlink" x="0px" y="0px"
	 viewBox="0 0 600 300" style="enable-background:new 0 0 600 300;" xml:space="preserve">
<style type="text/css">
	.st0{enable-background:new    ;}
	.st1{fill:#F15B47;}
	.st2{fill:#F69788;}
</style>
<g>
	<g class="st0">
		<path class="st1" d="M100.6,158.1H71.9L35.2,69.4H65L86.4,124l21.2-54.7h29.8L100.6,158.1z"/>
		<path class="st1" d="M180.7,43.4c0,9-6.9,15.7-16.4,15.7c-9.5,0-16.2-6.7-16.2-15.7c0-8.6,6.7-16.1,16.2-16.1
			C173.8,27.4,180.7,34.8,180.7,43.4z M150.2,158.1V69.5h28.2v88.6H150.2z"/>
		<path class="st1" d="M265.9,154.2c-6.9,3.7-14.1,6.5-24.2,6.5c-22.1,0-35.3-12-35.3-35.3V91.9h-16.1V69.5h16.1V43.4h28.2v26.1
			h26.1v22.4h-26.1v30.7c0,9.2,4.4,12.9,11.8,12.9c3.9,0,9.2-1.4,12.9-3.5L265.9,154.2z"/>
		<path class="st1" d="M368.1,158.1h-28.2V151c-6.9,6.2-16.1,9.7-27.5,9.7c-23.5,0-43.2-18.9-43.2-46.9c0-27.9,19.8-46.9,43.2-46.9
			c11.5,0,20.6,3.5,27.5,9.7v-7.1h28.2V158.1z M339.8,113.8c0-13.6-10.2-22.9-21.7-22.9c-12.3,0-21.3,9.4-21.3,22.9
			c0,13.8,9,22.9,21.3,22.9C329.6,136.7,339.8,127.6,339.8,113.8z"/>
		<path class="st1" d="M388.5,158.1v-127h28.2v127H388.5z"/>
		<path class="st1" d="M469.1,43.4c0,9-6.9,15.7-16.4,15.7c-9.5,0-16.2-6.7-16.2-15.7c0-8.6,6.7-16.1,16.2-16.1
			C462.3,27.4,469.1,34.8,469.1,43.4z M438.6,158.1V69.5h28.2v88.6H438.6z"/>
		<path class="st1" d="M510.2,129.3c1.2,7.6,8.1,10.4,15.7,10.4c7.4,0,11.5-3.2,11.5-7.1c0-3-2.3-5.3-8.8-6.5l-18-3.5
			c-16.4-3-25.8-11.8-25.8-25.8c0-18.2,15.7-30,38.1-30c22.1,0,36.7,10.1,40.2,25.4l-25.8,5.1c-0.9-5.5-6.2-10.4-14.8-10.4
			c-7.6,0-10.1,3.7-10.1,6.9c0,2.5,1.1,4.9,6.7,6.2l20.8,4.2c16.8,3.5,24.5,13.6,24.5,26.6c0,19.6-16.9,29.8-40.2,29.8
			c-20.8,0-38.6-7.6-41.6-25.8L510.2,129.3z"/>
	</g>
	<g>
		<g class="st0">
			<path class="st2" d="M159.7,208.6v40.5h-20.5V213c0-7.4-4.8-12-10.8-12c-7.6,0-12.6,5.5-12.6,16.4v31.7H95V213
				c0-7.4-4.8-12-11-12c-7.5,0-12.4,5.5-12.4,16.4v31.7H51.1v-64.8h20.6v5.9c4.4-4.9,10.7-7.9,19.1-7.9c9,0,16.8,3.9,21.2,11
				c5.2-6.7,12.9-11,23-11C148.7,182.4,159.7,192.8,159.7,208.6z"/>
			<path class="st2" d="M241.9,249.1h-20.6v-5.2c-5,4.5-11.7,7.1-20.1,7.1c-17.2,0-31.6-13.8-31.6-34.3c0-20.4,14.5-34.3,31.6-34.3
				c8.4,0,15.1,2.6,20.1,7.1v-5.2h20.6V249.1z M221.2,216.7c0-9.9-7.5-16.8-15.9-16.8c-9,0-15.6,6.8-15.6,16.8
				c0,10.1,6.6,16.8,15.6,16.8C213.8,233.5,221.2,226.8,221.2,216.7z"/>
			<path class="st2" d="M325,249.1h-20.6v-5.2c-5,4.5-11.7,7.1-20.1,7.1c-17.2,0-31.6-13.8-31.6-34.3c0-20.4,14.5-34.3,31.6-34.3
				c8.4,0,15.1,2.6,20.1,7.1v-5.2H325V249.1z M304.3,216.7c0-9.9-7.5-16.8-15.9-16.8c-9,0-15.6,6.8-15.6,16.8
				c0,10.1,6.6,16.8,15.6,16.8C296.8,233.5,304.3,226.8,304.3,216.7z"/>
			<path class="st2" d="M498.4,222h-47.5c1.7,7.7,7,12.5,13.9,12.5c4.8,0,10.3-1.2,13.8-7.5l18.3,3.7c-5.5,13.7-17.3,20.3-32.1,20.3
				c-18.7,0-34.2-13.8-34.2-34.3c0-20.4,15.5-34.3,34.3-34.3c18.3,0,33,13.2,33.4,34.3V222z M451.3,209.3H478
				c-1.9-7-7.1-10.2-13-10.2C459.2,199.1,453.2,202.8,451.3,209.3z"/>
			<path class="st2" d="M524.8,228c0.9,5.5,5.9,7.6,11.5,7.6c5.4,0,8.4-2.3,8.4-5.2c0-2.2-1.7-3.9-6.5-4.8l-13.2-2.6
				c-12-2.2-18.8-8.6-18.8-18.8c0-13.3,11.5-21.9,27.9-21.9c16.1,0,26.8,7.4,29.4,18.6l-18.8,3.7c-0.6-4-4.5-7.6-10.8-7.6
				c-5.5,0-7.4,2.7-7.4,5c0,1.8,0.8,3.6,4.9,4.5l15.2,3.1c12.3,2.6,17.9,9.9,17.9,19.5c0,14.3-12.4,21.8-29.4,21.8
				c-15.2,0-28.3-5.5-30.4-18.8L524.8,228z"/>
		</g>
		<g>
			<path class="st2" d="M398.5,249.2c0,3.1-2.2,5.2-5.4,5.2c-1.3,0-3.1-0.4-5.2-1l-3.1,16.3c3.5,1.4,7.6,2.7,13.5,2.7
				c12.5,0,20.6-8.3,20.6-20.8v-67.2h-20.5V249.2z"/>
		</g>
		<path class="st2" d="M378.6,229.6c-2.7,1.5-6.6,2.6-9.4,2.6c-5.4,0-8.6-2.7-8.6-9.4v-22.4h19.1v-16h-18.9v-5.8h-20.9l0.1,46.3
			c0,17,9.7,25.8,25.8,25.8c7.4,0,12.6-2.1,17.7-4.8L378.6,229.6z"/>
	</g>
</g>
</svg>
